
<svg version="1.0" xmlns="http://www.w3.org/2000/svg"
 width="1280.000000pt" height="960.000000pt" viewBox="0 0 1280.000000 960.000000"
 preserveAspectRatio="xMidYMid meet">

<g class='svg' transform="translate(0.000000,960.000000) scale(0.100000,-0.100000)"
 stroke="none">
 <defs>
  	<style type="text/css">
  		@keyframes colourblend {
			0% { fill: white; }
			33.333% { fill: white; }
			60.333% { fill: white; }
			66.666% { fill: white; }
			72.333% { fill: white; }
			100% { fill: white; }
		}
	  	svg {
	    	fill: white;
	    	animation-name: colourblend;
			animation-duration: 11.5s; 
			animation-timing-function: ease-out; 
			animation-direction: alternate;
			animation-iteration-count: infinite;
			animation-fill-mode: none;
			animation-play-state: running;
	  	}


  	</style>
</defs>
<path class='svg' d="M6142 8889 c-697 -44 -1374 -265 -1944 -635 -121 -78 -351 -248 -391
-290 -141 -142 -36 -384 166 -384 50 0 107 31 233 126 517 392 1051 615 1684
703 755 105 1495 -5 2101 -312 316 -161 617 -388 810 -612 96 -111 129 -134
202 -142 161 -17 283 122 243 276 -16 63 -70 134 -211 276 -296 299 -679 551
-1103 724 -537 220 -1145 311 -1790 270z"/>
<path class='svg' d="M6100 8110 c-669 -60 -1289 -322 -1880 -794 -240 -192 -638 -614
-736 -782 -25 -42 -29 -60 -29 -121 0 -63 3 -76 30 -114 59 -84 142 -119 234
-101 69 15 107 44 183 145 143 190 383 441 573 598 469 388 971 619 1525 704
228 35 607 30 890 -11 598 -86 1123 -353 1525 -775 218 -228 507 -612 707
-938 22 -36 53 -71 79 -88 38 -25 51 -28 125 -28 75 0 86 3 126 30 79 55 117
167 86 256 -38 112 -358 569 -605 865 -660 792 -1496 1171 -2562 1163 -103 -1
-224 -5 -271 -9z"/>
<path class='svg' d="M6240 7324 c-416 -37 -722 -119 -1036 -279 -508 -260 -935 -717
-1179 -1263 -202 -453 -212 -715 -60 -1677 106 -672 105 -804 -9 -1042 -79
-164 -167 -281 -367 -488 -140 -146 -159 -189 -128 -300 15 -53 91 -129 144
-144 118 -32 174 -6 330 152 331 337 501 638 551 977 27 185 10 392 -75 926
-115 719 -126 974 -50 1212 87 272 263 571 467 795 347 381 780 602 1307 668
150 19 466 16 605 -5 664 -101 1153 -467 1606 -1200 224 -362 322 -494 504
-676 178 -179 403 -346 506 -376 85 -24 172 1 231 70 41 46 56 96 51 166 -6
80 -40 128 -131 187 -232 147 -448 362 -609 605 -31 45 -104 160 -162 255
-106 171 -228 345 -335 478 -90 112 -318 341 -426 428 -337 272 -728 443
-1157 508 -128 19 -468 33 -578 23z"/>
<path class='svg' d="M6288 6539 c-743 -59 -1422 -611 -1597 -1297 -37 -145 -52 -277 -52
-462 0 -248 17 -383 111 -870 82 -428 85 -454 85 -675 -1 -180 -3 -213 -28
-330 -49 -227 -122 -420 -212 -555 -119 -179 -248 -278 -482 -369 -123 -47
-155 -69 -187 -124 -50 -87 -41 -184 22 -258 73 -85 165 -100 304 -48 385 142
643 368 813 714 165 337 250 746 225 1092 -13 183 -28 284 -95 633 -94 490
-99 527 -99 780 0 195 2 237 21 316 71 301 247 550 533 755 352 252 804 319
1207 178 203 -71 377 -184 554 -359 195 -193 306 -359 477 -710 97 -200 172
-324 266 -444 228 -292 589 -614 1010 -901 183 -126 230 -142 330 -114 79 22
156 128 156 216 0 88 -43 145 -178 235 -334 223 -657 493 -846 706 -162 184
-217 268 -350 537 -137 276 -196 375 -322 542 -430 568 -1035 863 -1666 812z"/>
<path class='svg' d="M3512 5897 c-63 -20 -117 -80 -156 -174 -174 -414 -243 -1080 -181
-1728 31 -319 115 -796 153 -871 85 -165 317 -160 403 8 26 51 24 111 -10 274
-90 428 -133 925 -111 1289 20 332 78 640 161 847 26 67 39 114 39 146 -1 147
-155 255 -298 209z"/>
<path class='svg' d="M6330 5728 c-236 -17 -481 -139 -648 -323 -134 -146 -231 -338 -289
-571 -37 -150 -39 -366 -5 -522 146 -659 776 -1467 1887 -2423 351 -301 943
-762 1022 -796 109 -45 239 4 289 111 31 66 31 126 0 193 -22 47 -41 64 -182
169 -878 650 -1668 1387 -2109 1965 -280 367 -442 688 -476 944 -13 99 -7 170
22 283 85 326 302 522 579 522 146 0 285 -50 405 -147 105 -85 156 -160 280
-408 260 -525 448 -798 770 -1121 203 -203 319 -303 615 -526 249 -188 792
-576 840 -600 54 -28 141 -24 201 9 110 59 147 188 89 303 -24 47 -13 38 -360
286 -601 429 -815 598 -1051 834 -293 291 -445 511 -681 985 -133 265 -194
365 -292 471 -237 258 -560 387 -906 362z"/>
<path class='svg' d="M6320 4803 c-80 -42 -115 -102 -115 -197 0 -67 4 -79 62 -199 334
-686 1057 -1509 1978 -2250 189 -152 516 -400 633 -480 95 -65 182 -72 269
-21 101 59 135 193 78 304 -17 33 -28 42 -305 246 -480 355 -857 681 -1250
1081 -468 476 -776 883 -990 1308 -80 159 -88 171 -134 199 -72 45 -152 48
-226 9z"/>
<path class='svg' d="M5662 3056 c-98 -32 -156 -113 -155 -215 1 -42 9 -74 36 -131 59
-125 71 -187 71 -345 -1 -123 -4 -151 -28 -230 -80 -264 -231 -460 -566 -737
-113 -93 -139 -190 -82 -299 53 -102 180 -147 283 -102 98 43 382 302 514 468
295 370 401 813 294 1230 -24 95 -69 205 -109 268 -52 83 -164 123 -258 93z"/>
<path class='svg' d="M6557 1819 c-279 -68 -492 -287 -630 -649 -60 -157 -70 -200 -65
-269 12 -168 205 -255 349 -158 47 31 72 73 104 169 106 323 258 494 421 475
109 -12 262 -121 474 -336 85 -87 171 -166 190 -177 50 -26 143 -25 197 4 76
40 123 119 123 209 0 74 -43 137 -210 304 -375 376 -654 502 -953 428z"/>
</g>
</svg>
