
<svg version="1.0" xmlns="http://www.w3.org/2000/svg"
 width="1280.000000pt" height="960.000000pt" viewBox="0 0 1280.000000 960.000000"
 preserveAspectRatio="xMidYMid meet">

<g class='svg' transform="translate(0.000000,960.000000) scale(0.100000,-0.100000)" fill="white" stroke="none">
<path d="M9045 7699 c-44 -4 -487 -51 -985 -104 -498 -52 -1008 -107 -1135
-120 -126 -13 -381 -40 -565 -60 -184 -20 -481 -51 -660 -70 -179 -19 -473
-50 -655 -69 -181 -20 -478 -51 -660 -70 -1115 -118 -1087 -115 -1088 -131 -1
-11 -55 -34 -100 -42 -26 -5 -39 -23 -16 -23 7 0 0 -9 -14 -20 -14 -11 -28
-20 -32 -20 -9 0 -51 -49 -76 -87 -11 -18 -27 -33 -35 -33 -9 0 -12 -4 -9 -10
7 -11 -31 -90 -44 -90 -4 0 -14 -38 -21 -85 -13 -82 -24 -104 -33 -67 -3 9 -5
-792 -6 -1780 0 -1175 3 -1799 9 -1803 6 -3 10 0 11 7 1 22 28 -95 29 -125 0
-16 10 -36 25 -49 14 -12 25 -30 25 -40 0 -10 6 -18 13 -18 6 -1 28 -23 47
-50 19 -27 48 -55 63 -61 20 -8 27 -18 24 -29 -3 -13 0 -16 13 -13 22 6 83
-24 75 -37 -17 -27 171 -40 805 -54 338 -7 634 -11 657 -9 67 8 2816 -57 2838
-67 34 -14 1543 -44 1590 -31 22 6 67 11 100 11 42 0 55 3 45 10 -10 6 -11 12
-5 18 18 15 89 32 113 25 18 -4 21 -2 16 11 -9 23 35 56 64 49 17 -4 21 -2 16
11 -8 21 13 46 37 46 11 0 19 6 19 13 0 8 10 23 23 35 18 17 26 19 35 10 9 -9
12 -5 12 19 0 34 13 48 45 48 17 0 21 9 26 60 3 33 11 76 18 95 6 19 11 50 11
67 0 18 5 33 10 33 6 0 10 -7 10 -15 0 -8 5 -15 10 -15 7 0 10 720 10 2140 0
1420 -3 2140 -10 2140 -5 0 -10 -8 -10 -18 0 -10 -3 -22 -7 -26 -8 -8 -32 85
-40 155 -4 39 -8 46 -23 42 -14 -4 -24 5 -39 36 -12 22 -21 47 -21 56 0 9 -9
15 -23 15 -15 0 -29 9 -36 24 -7 13 -28 30 -47 39 -19 9 -34 23 -34 32 0 8 -9
15 -20 15 -27 0 -82 29 -76 39 3 5 -31 12 -75 15 -64 6 -79 10 -75 22 6 16
-34 17 -169 3z m-15 -670 c3 -31 5 -939 5 -2017 0 -1582 -3 -1964 -13 -1974
-10 -10 -61 -12 -210 -11 -108 2 -1353 12 -2767 23 -1413 12 -2580 23 -2593
26 l-22 4 0 1750 c0 963 2 1750 5 1750 17 0 5504 501 5520 504 11 2 31 3 45 2
23 -1 25 -6 30 -57z"/>
<path d="M6320 6095 c-85 -7 -156 -14 -157 -14 -1 -1 -18 -52 -37 -113 -167
-546 -246 -807 -246 -817 0 -7 -16 -63 -35 -124 -199 -642 -325 -1064 -325
-1087 0 -11 221 -14 282 -4 36 6 37 8 62 88 14 44 30 104 36 131 6 28 21 84
35 125 13 41 45 145 70 230 26 85 58 189 71 230 13 41 60 194 104 340 120 391
144 472 188 615 55 177 122 402 122 409 0 3 -3 5 -7 5 -5 -1 -78 -8 -163 -14z"/>
<path d="M6660 5505 c0 -186 -5 -173 88 -200 26 -7 92 -29 147 -49 55 -21 125
-45 155 -56 30 -10 105 -36 165 -58 61 -21 133 -47 160 -57 28 -9 91 -33 140
-51 50 -19 96 -34 103 -34 7 0 57 -18 111 -40 53 -22 104 -40 112 -40 22 -1
-47 -35 -185 -90 -70 -28 -137 -57 -149 -64 -12 -8 -107 -49 -212 -91 -104
-42 -200 -84 -213 -92 -13 -8 -112 -52 -220 -98 l-197 -83 -3 -166 c-1 -91 1
-166 5 -166 11 0 304 132 473 213 85 41 243 111 350 157 107 46 202 89 210 95
8 7 76 38 150 69 74 32 185 82 245 111 61 29 120 56 133 59 22 7 22 11 22 155
l0 148 -72 27 c-40 15 -109 42 -153 59 -75 29 -137 51 -310 113 -38 14 -94 35
-125 48 -30 13 -77 31 -105 41 -48 17 -111 40 -280 103 -44 16 -96 36 -115 44
-19 9 -57 23 -85 33 -27 9 -77 28 -110 40 -33 12 -76 28 -95 35 -19 7 -56 21
-82 32 -26 10 -49 18 -52 18 -3 0 -6 -74 -6 -165z"/>
<path d="M5270 5571 c-14 -10 -200 -107 -415 -216 -214 -108 -506 -258 -647
-332 l-258 -135 0 -124 0 -124 28 -11 c32 -13 255 -110 327 -143 28 -13 77
-34 110 -48 137 -59 233 -102 285 -128 30 -15 58 -27 61 -26 4 0 40 -14 80
-33 41 -18 110 -49 154 -68 44 -20 109 -49 145 -66 68 -32 159 -67 173 -67 4
0 6 70 5 156 l-3 156 -65 28 c-62 26 -119 49 -295 120 -44 17 -104 43 -133 56
-29 13 -58 24 -64 24 -10 0 -49 16 -188 77 -19 9 -62 26 -95 38 -166 62 -184
70 -174 79 8 7 868 418 967 462 l52 23 0 160 c0 173 -2 177 -50 142z"/>
<path d="M8696 5354 c-22 -21 -23 -302 -2 -407 24 -117 29 -174 17 -182 -15
-9 -13 -55 4 -85 13 -22 14 17 15 327 0 204 -4 354 -9 358 -5 3 -17 -2 -25
-11z"/>
<path d="M8713 3632 c-6 -11 -14 -41 -18 -68 -7 -54 -33 -134 -43 -134 -9 0
-56 -69 -51 -74 2 -1 28 0 58 3 52 6 55 8 63 39 5 18 7 82 6 142 -2 89 -5 107
-15 92z"/>
<path d="M1021 4877 c-1 -129 -4 -196 -11 -192 -7 4 -10 -106 -10 -324 0 -205
4 -331 10 -333 6 -2 10 -85 10 -208 1 -148 4 -200 12 -186 12 22 11 1324 -2
1396 -5 29 -8 -23 -9 -153z"/>
<path d="M4934 2252 c-4 -29 -10 -39 -20 -35 -11 4 -14 -6 -14 -43 0 -53 -32
-120 -51 -108 -7 4 -10 1 -7 -7 7 -20 -10 -49 -29 -49 -9 0 -13 -3 -10 -7 9
-9 -22 -43 -40 -43 -7 0 -13 -6 -13 -14 0 -7 -15 -20 -32 -27 -18 -7 -37 -18
-43 -24 -17 -20 -92 -38 -130 -32 -30 5 -35 3 -33 -11 2 -13 -5 -17 -27 -18
-16 -1 -63 -5 -102 -9 l-73 -8 0 -48 c0 -43 -3 -49 -20 -49 -20 0 -21 -5 -18
-92 l3 -93 28 -3 c19 -2 27 -9 27 -22 0 -15 10 -20 53 -24 47 -5 3488 -187
3530 -186 11 0 17 8 17 23 0 20 4 23 30 19 29 -4 30 -3 30 36 0 34 3 41 23 44
21 3 22 8 25 107 1 57 -1 108 -6 113 -5 5 -53 15 -108 23 -105 16 -177 35
-156 42 28 10 9 23 -35 23 -51 0 -123 27 -123 46 0 7 -13 15 -30 19 -16 4 -38
17 -49 31 -10 13 -23 24 -28 24 -10 0 -53 42 -53 52 0 3 -22 28 -49 56 -50 51
-68 94 -56 134 6 19 5 21 -6 11 -21 -21 -25 -16 -39 41 -7 30 -16 59 -19 65
-5 7 -355 21 -1016 40 -556 17 -1081 33 -1167 37 l-157 6 -7 -40z"/>
<path d="M10970 560 c-30 -22 -80 -56 -110 -76 -119 -81 -282 -237 -300 -287
-9 -26 -8 -28 13 -25 14 2 23 11 25 26 3 17 10 22 33 22 24 0 29 4 29 24 0 28
12 39 49 40 18 1 27 8 31 26 4 19 14 26 40 30 29 4 35 9 35 30 0 20 5 25 25
27 14 0 31 1 38 2 8 1 11 8 7 20 -8 27 18 44 55 36 30 -7 31 -6 20 15 -15 28
2 50 39 50 19 0 22 3 12 9 -16 10 -6 31 15 31 8 0 14 9 14 20 0 27 -7 25 -70
-20z"/>
</g>
</svg>
