<svg version="1.0" xmlns="http://www.w3.org/2000/svg"
 width="1280.000000pt" height="960.000000pt" viewBox="0 0 1280.000000 960.000000"
 preserveAspectRatio="xMidYMid meet">

<g transform="translate(0.000000,960.000000) scale(0.100000,-0.100000)" fill="white" stroke="none">
<path d="M8878 7753 c-10 -3 -18 -9 -18 -14 0 -13 -28 -11 -32 2 -3 8 -10 6
-20 -5 -9 -9 -24 -13 -32 -10 -9 4 -16 1 -16 -6 0 -7 -7 -10 -15 -6 -9 3 -15
0 -15 -9 0 -8 -5 -15 -11 -15 -16 0 -83 -32 -91 -44 -4 -6 -10 -8 -13 -5 -7 8
-117 -102 -160 -161 -39 -53 -85 -146 -85 -172 0 -10 -4 -18 -9 -18 -10 0 -11
-21 -12 -150 0 -94 3 -131 14 -160 15 -38 27 -98 27 -132 0 -33 -8 -44 -99
-128 -55 -50 -102 -90 -105 -88 -4 2 -14 -11 -25 -27 -10 -17 -62 -71 -116
-120 -54 -50 -152 -143 -219 -208 -66 -64 -135 -127 -153 -140 -18 -12 -34
-26 -35 -32 -6 -22 -156 -156 -163 -146 -3 6 -10 9 -15 6 -4 -3 -11 3 -14 12
-6 15 -8 15 -16 3 -8 -12 -10 -11 -11 5 0 11 -3 15 -5 9 -5 -12 -44 -7 -44 5
0 4 -6 8 -12 9 -7 1 -35 6 -63 12 -59 13 -242 5 -262 -11 -9 -9 -13 -8 -13 0
0 9 -6 8 -22 -1 -13 -7 -29 -11 -35 -10 -7 2 -13 -2 -13 -8 0 -6 -6 -10 -12
-9 -21 2 -58 -12 -58 -23 0 -5 -4 -6 -10 -3 -5 3 -10 1 -10 -5 0 -6 -4 -8 -10
-5 -5 3 -10 1 -10 -4 0 -6 -5 -11 -10 -11 -6 0 -28 -12 -50 -26 -27 -18 -45
-24 -57 -19 -10 5 -22 7 -28 6 -5 -1 -14 4 -20 11 -5 7 -14 13 -20 14 -25 1
-65 17 -65 26 0 5 -4 6 -10 3 -5 -3 -10 2 -10 12 0 15 -2 16 -10 3 -8 -13 -10
-12 -10 3 0 10 -4 16 -9 12 -5 -3 -12 -1 -16 5 -3 5 -15 10 -26 10 -10 0 -19
5 -19 11 0 5 -4 7 -10 4 -5 -3 -10 -2 -10 3 0 6 -11 13 -25 16 -14 4 -25 11
-25 17 0 6 -4 8 -9 5 -5 -3 -20 3 -34 14 -14 11 -30 20 -36 20 -6 0 -11 8 -11
18 0 12 -2 14 -8 4 -7 -10 -15 -7 -38 10 -16 12 -32 27 -36 33 -4 5 -8 6 -8 2
0 -16 -80 37 -80 52 0 13 -2 13 -9 3 -7 -11 -9 -10 -15 3 -3 9 -10 13 -16 10
-11 -7 -40 18 -40 34 0 6 4 11 10 11 5 0 7 13 4 28 -4 19 0 34 10 45 18 18 22
83 4 89 -6 2 -12 21 -12 41 -1 20 -4 37 -7 37 -3 0 -11 24 -19 53 -7 28 -24
69 -37 89 -12 21 -23 40 -23 43 0 8 -80 115 -101 135 -26 25 -97 80 -105 80
-4 0 -14 8 -23 18 -9 9 -25 19 -36 20 -11 2 -34 11 -52 19 -65 31 -352 33
-388 3 -6 -5 -15 -7 -19 -3 -4 4 -10 3 -14 -2 -12 -16 -73 -45 -83 -39 -5 3
-9 -1 -9 -8 0 -7 -15 -23 -34 -36 -51 -35 -128 -120 -170 -189 -54 -87 -77
-163 -83 -268 -5 -80 0 -121 23 -228 6 -24 -1 -35 -53 -85 -83 -81 -146 -132
-160 -132 -7 0 -13 -6 -13 -13 0 -10 -25 -32 -47 -40 -3 -1 -19 -13 -33 -27
-52 -48 -82 -70 -96 -70 -8 0 -14 -7 -14 -15 0 -8 -13 -21 -29 -30 -16 -8 -31
-18 -33 -22 -4 -9 -84 -73 -92 -73 -3 0 -17 -11 -31 -26 -14 -14 -30 -22 -35
-19 -6 3 -10 -1 -10 -9 0 -8 -9 -20 -20 -26 -11 -6 -31 -22 -46 -35 -15 -14
-29 -23 -32 -20 -3 2 -13 -7 -24 -20 -11 -14 -24 -25 -29 -25 -5 0 -31 -20
-56 -45 -29 -27 -50 -40 -54 -34 -5 8 -8 8 -10 0 -3 -8 -18 -5 -46 9 -23 11
-49 20 -58 20 -8 0 -15 5 -15 11 0 6 -9 8 -20 4 -12 -4 -26 -2 -33 3 -18 14
-57 21 -57 11 0 -12 -117 -12 -122 0 -2 5 -21 3 -43 -5 -22 -7 -48 -11 -57 -8
-10 3 -18 1 -18 -4 0 -14 -50 -22 -50 -8 0 6 -5 3 -11 -7 -9 -16 -89 -63 -89
-53 0 3 -10 -5 -23 -17 -12 -12 -45 -43 -72 -68 -28 -26 -55 -55 -62 -65 -30
-47 -84 -151 -90 -174 -3 -14 -8 -29 -11 -34 -20 -35 -19 -238 2 -310 28 -100
85 -195 161 -271 38 -38 72 -70 75 -71 16 -2 60 -29 60 -36 0 -4 3 -7 8 -7 25
4 40 -4 46 -23 5 -19 8 -21 16 -8 9 13 12 13 21 -4 9 -15 13 -16 20 -5 6 9 12
10 16 4 9 -12 28 -14 153 -19 52 -2 101 1 107 6 7 6 19 8 28 5 8 -4 17 -1 21
4 3 6 15 9 25 6 11 -3 19 -2 19 3 0 13 39 19 44 6 2 -6 7 -2 11 9 3 12 27 30
53 42 44 21 130 95 179 155 33 41 84 145 102 208 21 79 19 207 -7 330 -30 144
-29 153 15 187 21 15 44 34 53 41 68 57 88 72 92 72 3 0 24 18 48 40 24 22 52
40 62 40 10 0 18 7 18 15 0 8 9 19 21 25 11 7 32 21 46 33 13 12 26 21 28 20
2 -1 25 19 51 43 27 24 53 44 59 44 6 0 16 9 23 20 7 11 16 20 22 20 5 0 21
11 36 25 14 13 30 22 35 19 5 -3 9 -1 9 4 0 12 186 163 203 166 7 1 18 5 25 9
6 5 12 4 12 -2 0 -6 7 -8 15 -5 8 4 15 1 15 -5 0 -6 3 -10 8 -9 4 1 20 -4 35
-10 16 -7 32 -12 37 -12 4 0 11 -8 14 -17 6 -14 9 -15 15 -4 6 9 11 10 15 2 4
-6 29 -13 57 -17 27 -4 51 -10 53 -13 3 -4 41 -6 85 -5 55 1 81 -2 81 -10 0
-7 3 -6 9 2 4 7 26 18 47 23 50 12 53 14 87 28 16 6 33 9 38 5 5 -3 9 0 9 5 0
6 6 11 14 11 7 0 25 9 39 20 18 15 27 17 30 8 3 -8 6 -6 6 5 1 9 5 17 9 17 5
0 19 9 32 20 28 24 48 26 56 5 5 -12 10 -13 20 -4 8 6 14 7 14 2 0 -5 18 -15
40 -22 22 -6 40 -16 40 -22 0 -6 5 -7 10 -4 6 3 10 2 10 -4 0 -6 11 -13 25
-17 14 -3 25 -9 25 -13 0 -3 20 -15 45 -26 25 -11 45 -26 46 -35 0 -10 2 -11
6 -2 3 9 13 6 36 -10 18 -12 35 -26 38 -31 3 -5 10 -8 15 -8 17 1 44 -10 44
-20 0 -5 7 -9 15 -9 8 0 15 -5 15 -10 0 -6 3 -9 8 -8 12 3 52 -13 52 -21 0 -4
17 -15 38 -24 22 -9 44 -27 50 -40 6 -12 11 -16 11 -8 1 11 4 11 16 1 8 -7 12
-17 8 -24 -9 -13 -11 -226 -2 -226 4 0 9 -21 13 -47 10 -75 98 -231 158 -281
15 -13 28 -30 28 -38 0 -9 4 -13 9 -10 5 3 28 -9 52 -27 46 -35 127 -77 147
-77 7 0 12 -3 12 -7 0 -5 21 -9 48 -11 26 -1 49 -7 50 -12 4 -12 149 -13 156
-2 3 5 37 14 76 21 38 7 70 16 70 21 0 13 40 19 40 7 0 -7 9 -1 20 13 10 14
21 22 25 18 3 -3 18 5 32 18 14 13 28 22 30 20 2 -2 28 20 57 49 57 56 115
146 136 211 7 21 15 43 18 49 20 34 24 308 5 346 -6 13 -19 46 -27 74 l-16 49
52 54 c29 29 65 61 80 70 15 9 29 21 30 26 2 6 57 63 123 126 66 63 182 175
259 247 76 73 142 131 146 128 5 -3 11 3 15 14 5 17 44 56 164 165 41 36 46
38 94 33 30 -2 55 -11 62 -20 9 -12 14 -14 23 -5 9 9 12 8 12 -6 0 -13 5 -16
21 -11 14 5 25 1 34 -12 9 -10 14 -13 15 -5 0 14 56 17 65 2 3 -5 19 -10 36
-10 16 0 29 5 29 10 0 6 14 10 30 10 17 0 30 -4 30 -9 0 -5 9 -7 20 -4 11 3
20 10 20 15 0 6 11 8 24 6 16 -3 27 0 31 10 4 11 8 12 20 2 12 -10 15 -9 15 4
0 19 16 21 23 4 4 -9 6 -8 6 2 1 8 22 24 49 34 26 11 49 22 52 26 3 3 26 20
51 38 25 17 53 41 61 54 9 13 25 34 37 47 30 34 79 139 100 213 20 75 21 216
2 293 -14 53 -74 186 -101 220 -30 40 -139 145 -149 145 -6 0 -11 4 -11 8 0 4
-20 16 -44 26 -25 10 -47 24 -49 30 -3 6 -18 13 -33 14 -16 1 -30 6 -32 12 -2
5 -17 7 -33 3 -17 -3 -29 -1 -29 5 0 5 -11 12 -25 14 -14 3 -25 1 -25 -3 0
-11 -83 -12 -95 -1 -6 5 -18 7 -27 5z m22 -334 c0 -5 5 -7 11 -4 16 11 109 13
109 3 0 -5 6 -8 13 -7 16 3 67 -22 67 -33 0 -5 4 -7 9 -4 11 7 74 -62 97 -106
17 -33 27 -168 16 -232 -7 -38 -122 -162 -133 -144 -7 10 -9 9 -9 -3 0 -20
-26 -29 -103 -36 -36 -3 -63 0 -72 7 -8 7 -15 7 -19 1 -4 -6 -17 -4 -34 5 -15
7 -33 14 -39 14 -7 0 -13 8 -14 18 0 11 -2 12 -6 4 -6 -14 -93 67 -93 87 0 6
-4 11 -8 11 -31 0 -37 202 -8 258 25 49 125 142 152 142 8 0 14 4 14 10 0 5 7
7 15 4 8 -4 15 -1 15 5 0 6 5 11 10 11 6 0 10 -5 10 -11z m-3350 -752 c0 -5 6
-7 14 -4 8 3 17 -1 20 -9 3 -9 10 -12 16 -9 5 3 10 1 10 -4 0 -6 3 -10 8 -9
50 10 163 -129 149 -184 -3 -10 -1 -18 4 -18 5 0 9 -16 9 -35 0 -19 -5 -35
-11 -35 -6 0 -8 -9 -4 -20 15 -46 -95 -199 -145 -203 -11 -1 -22 -8 -25 -15
-4 -11 -8 -12 -20 -2 -12 10 -15 9 -15 -4 0 -9 -4 -16 -10 -16 -5 0 -10 5 -10
11 0 5 -4 8 -8 5 -5 -3 -42 -6 -83 -7 -61 -2 -79 1 -98 17 -68 55 -103 90
-129 129 -26 40 -29 52 -27 112 2 37 10 89 18 114 16 52 62 119 82 119 7 0 15
7 18 15 5 12 66 46 89 49 3 1 9 4 12 7 10 9 136 5 136 -4z m1604 -946 c17 -7
26 -7 29 2 3 9 7 9 19 -1 9 -7 20 -12 24 -10 18 5 110 -47 145 -81 86 -85 107
-213 54 -324 -26 -57 -79 -112 -96 -101 -5 3 -9 1 -9 -4 0 -15 -70 -54 -70
-39 -1 7 -6 5 -13 -5 -11 -14 -23 -16 -70 -9 -38 5 -58 4 -61 -3 -2 -6 -10 -3
-18 8 -8 10 -20 16 -26 12 -7 -4 -12 -2 -12 4 0 6 -4 8 -10 5 -5 -3 -10 -1
-10 5 0 6 -5 8 -11 5 -13 -9 -95 74 -123 123 -29 52 -30 192 -1 241 11 18 25
42 31 52 18 32 46 59 61 59 7 0 13 4 13 9 0 4 21 16 48 25 26 10 54 21 62 26
8 5 16 9 17 9 1 1 13 -3 27 -8z m-3384 -556 c30 -10 58 -23 62 -29 4 -6 8 -7
8 -3 0 5 27 -19 59 -52 60 -62 93 -128 90 -181 -1 -14 0 -29 1 -35 5 -14 -10
-64 -31 -105 -19 -39 -97 -125 -106 -116 -3 2 -15 -4 -26 -15 -14 -13 -23 -15
-28 -8 -4 8 -10 5 -17 -7 -21 -38 -181 -27 -238 18 -94 73 -132 146 -133 256
0 54 18 130 37 154 58 71 75 86 88 81 9 -3 14 1 14 12 0 14 3 15 15 5 12 -10
15 -10 15 2 0 15 72 43 110 42 14 0 50 -9 80 -19z"/>
<path d="M8277 3903 c-3 -1211 -2 -2042 4 -2049 5 -6 9 -149 10 -318 1 -251 3
-308 14 -313 20 -7 175 70 219 109 11 10 26 18 33 18 7 0 13 3 13 8 0 4 15 14
33 21 17 8 43 25 57 38 14 13 28 23 32 23 5 0 8 923 8 2050 l0 2050 200 0 200
0 0 -1889 c0 -1869 0 -1889 20 -1894 12 -3 21 1 25 12 3 9 24 31 46 48 23 18
102 90 175 162 l134 129 0 1916 0 1916 -608 0 -609 0 -6 -2037z"/>
<path d="M4810 3232 c0 -1642 3 -2131 12 -2140 7 -7 20 -12 30 -12 10 0 18 -4
18 -10 0 -5 6 -7 14 -4 8 3 17 1 20 -5 4 -6 13 -8 21 -5 8 4 18 -1 21 -10 3
-9 9 -14 13 -12 17 11 93 -18 101 -38 8 -20 9 -20 10 -1 0 19 2 18 19 -4 14
-18 20 -21 25 -10 4 10 8 11 12 2 3 -7 12 -9 20 -6 8 3 14 0 14 -7 0 -7 8 -9
20 -5 11 4 20 2 20 -4 0 -6 7 -11 15 -11 13 0 15 229 15 2005 l0 2005 200 0
200 0 0 -2055 c0 -1130 4 -2055 8 -2055 5 0 20 -9 33 -21 13 -11 25 -16 27
-10 4 13 42 15 42 2 0 -6 16 -7 35 -4 21 3 35 1 35 -5 0 -5 9 -12 20 -15 11
-3 20 -1 20 4 0 5 9 9 20 9 11 0 20 -5 20 -11 0 -7 11 -9 30 -5 17 3 42 1 56
-4 14 -6 36 -7 50 -4 l24 6 0 2284 0 2284 -620 0 -620 0 0 -2128z"/>
<path d="M6557 4473 c-4 -3 -7 -836 -7 -1850 l0 -1844 171 2 c94 0 184 5 200
11 l29 10 0 1639 0 1639 200 0 200 0 0 -1605 0 -1605 38 3 c20 2 47 9 60 16
17 9 22 9 22 0 0 -7 8 -5 19 5 11 10 25 15 31 11 6 -4 18 -1 26 6 13 10 17 10
23 0 6 -10 10 -9 15 4 3 9 14 15 23 14 10 -2 28 2 39 9 12 6 24 9 27 5 4 -3
13 0 21 6 8 7 19 10 23 8 5 -3 16 0 25 7 16 12 18 70 23 772 13 1856 15 2575
8 2654 l-8 85 -601 3 c-330 1 -604 -1 -607 -5z"/>
<path d="M3094 3817 c-6 -16 2 -1186 9 -1235 2 -17 7 -35 10 -39 4 -3 7 -14 7
-23 0 -29 60 -131 114 -196 28 -33 65 -78 81 -99 46 -58 147 -165 157 -165 4
0 7 322 6 715 l-3 715 203 0 202 0 0 -908 0 -907 55 -44 c30 -24 55 -48 55
-52 0 -5 5 -9 10 -9 15 0 109 -62 142 -93 15 -13 29 -23 31 -21 2 3 10 -2 17
-11 7 -8 19 -15 26 -15 8 0 14 -3 14 -7 0 -9 57 -43 71 -43 5 0 9 487 9 1225
l0 1225 -605 0 c-492 0 -607 -2 -611 -13z"/>
</g>
</svg>
